<?xml version="1.0" encoding="utf-8"?>
<!-- Generator: Adobe Illustrator 15.0.2, SVG Export Plug-In . SVG Version: 6.00 Build 0)  -->
<!DOCTYPE svg PUBLIC "-//W3C//DTD SVG 1.1//EN" "http://www.w3.org/Graphics/SVG/1.1/DTD/svg11.dtd">
<svg version="1.1" xmlns="http://www.w3.org/2000/svg" xmlns:xlink="http://www.w3.org/1999/xlink" x="0px" y="0px"
	 width="53.315px" height="58.951px" viewBox="0 0 53.315 58.951" enable-background="new 0 0 53.315 58.951" xml:space="preserve">
<g id="amahi">
</g>
<g id="blue">
</g>
<g id="line_blue">
</g>
<g id="green">
</g>
<g id="line_yellow">
</g>
<g id="yellow">
</g>
<g id="orange">
</g>
<g id="line_red">
</g>
<g id="red">
</g>
<g id="purple">
	<g>
		<linearGradient id="SVGID_1_" gradientUnits="userSpaceOnUse" x1="31.3862" y1="24.9033" x2="62.1065" y2="24.9033">
			<stop  offset="0" style="stop-color:#CFEDFC"/>
			<stop  offset="0.0564" style="stop-color:#BBE6FB"/>
			<stop  offset="0.1704" style="stop-color:#83D5F7"/>
			<stop  offset="0.3302" style="stop-color:#00BDF2"/>
			<stop  offset="0.4574" style="stop-color:#00AEEF"/>
			<stop  offset="0.5171" style="stop-color:#00A2DC"/>
			<stop  offset="0.6276" style="stop-color:#008BBB"/>
			<stop  offset="0.777" style="stop-color:#006A8F"/>
			<stop  offset="0.9578" style="stop-color:#0D415E"/>
			<stop  offset="1" style="stop-color:#183654"/>
		</linearGradient>
		<path fill-rule="evenodd" clip-rule="evenodd" fill="url(#SVGID_1_)" d="M36.445,5.135c-0.116,0.501-0.226,0.992-0.33,1.476
			l-0.001,0.003L36.093,6.75l-0.025,0.155l-0.022,0.137L36.001,7.33l-0.023,0.146l-0.022,0.139l-0.066,0.42l-0.021,0.14
			l-0.062,0.405l-0.022,0.142l-0.06,0.391l-0.021,0.143l-0.018,0.119l-0.021,0.144l-0.017,0.115l-0.021,0.145l-0.11,0.759
			L35.5,10.639l-0.021,0.146l-0.001,0.01l-0.033,0.234l-0.013,0.095l-0.02,0.147l-0.044,0.328l-0.02,0.147l-0.011,0.086
			l-0.019,0.147l-0.011,0.083L35.29,12.21l-0.01,0.08l-0.019,0.148l-0.009,0.077l-0.019,0.149l-0.002,0.017l-0.05,0.427
			l-0.008,0.069l-0.016,0.149l-0.046,0.43l-0.006,0.062l-0.015,0.15l-0.021,0.209l-0.006,0.057l-0.014,0.15l-0.005,0.055
			l-0.013,0.15l-0.004,0.053l-0.013,0.15l-0.004,0.05l-0.012,0.15l-0.004,0.048l-0.011,0.151l-0.014,0.196l-0.003,0.044l-0.01,0.151
			l-0.003,0.042l-0.009,0.151l-0.003,0.04l-0.008,0.152l-0.016,0.335l-0.002,0.042l-0.001,0.035l-0.006,0.151l-0.001,0.033
			L34.9,16.715l-0.001,0.031l-0.004,0.152l0,0.029l-0.003,0.152l0,0.027l-0.002,0.152l0,0.026l-0.002,0.153v0.024v0.153v0.022
			l0.001,0.153v0.021l0.001,0.069l0.001,0.104l0.003,0.154l0,0.018l0.004,0.154l0,0.016l0.005,0.154l0.001,0.015l0.006,0.154
			l0,0.013l0.001,0.021l0.007,0.146l0.009,0.156l0.001,0.01c0.024,0.386,0.057,0.763,0.102,1.135h0l0.036,0.282l0,0l0.039,0.279l0,0
			l0.042,0.274h0l0.044,0.271h0l0.048,0.266l0,0l0.051,0.263h0l0.054,0.259l0,0l0.057,0.255l0,0l0.06,0.25h0l0.062,0.248l0,0
			c0.021,0.082,0.042,0.163,0.065,0.244h0l0.067,0.241h0l0.07,0.237h0l0.072,0.234l0,0l0.075,0.23h0l0.077,0.228h0l0.08,0.224h0
			l0.083,0.221l0,0l0.085,0.218l0,0l0.087,0.215h0c0.618,1.496,1.4,2.777,2.272,3.951h0l0.125,0.167h0l0.126,0.166h0l0.128,0.164
			l0,0l0.128,0.163l0,0l0.13,0.162h0l0.13,0.16l0,0l0.132,0.16h0l0.132,0.158h0l0.133,0.158h0l0.134,0.156l0,0l0.135,0.156l0,0
			l0.135,0.155h0l0.136,0.154l0,0l0.137,0.153v0l0.138,0.153l0,0l0.138,0.152h0l0.138,0.152l0,0.001l0.139,0.151l0,0l0.139,0.151
			l0,0l0.139,0.151v0l0.14,0.151l0,0l0.14,0.151v0l0.141,0.151l0,0l0.115,0.11v0l0.116,0.11v0l0.116,0.11v0l0.116,0.111v0
			l0.115,0.11l0,0l0.116,0.111v0l0.115,0.11l0,0l0.116,0.111l0,0l0.115,0.111h0l0.116,0.111v0l0.116,0.111l0,0l0.116,0.111l0,0
			l0.116,0.111h0l0.117,0.112h0l0.116,0.112h0l0.117,0.112l0,0l0.116,0.112l0,0l0.117,0.112l0,0l0.117,0.113h0l0.118,0.113l0,0
			l0.118,0.113v0l0.119,0.114l0,0l0.119,0.114v0l0.119,0.114l0,0l0.119,0.114v0l0.119,0.115h0l0.12,0.116h0l0.12,0.117h0l0.12,0.116
			h0l0.121,0.118l0,0l0.122,0.117l0,0l0.122,0.119l0.122,0.118l0.123,0.119l0.123,0.12l0.124,0.12l0.124,0.121l0.125,0.122
			l0.125,0.122l0.125,0.123v0l0.125,0.123v0l0.126,0.124l0,0l0.126,0.124v0l0.128,0.125l0,0l0.128,0.126l0,0l0.129,0.127l0,0
			l0.129,0.127l0.13,0.128l0,0l0.13,0.129h0c0.653,0.647,1.332,1.325,2.041,2.042c0.77,0.779,1.795,1.761,2.527,2.699l0.081,0.106h0
			l0.016,0.021h0l0.015,0.021h0l0.016,0.021h0l0.015,0.021l0.015,0.021l0.015,0.021l0.015,0.021l0.015,0.02l0,0l0.015,0.021l0,0
			l0.014,0.02v0l0.015,0.02l0,0l0.014,0.02l0,0l0.014,0.02v0l0.014,0.019v0l0.014,0.02l0,0l0.014,0.02l0,0l0.014,0.02l0,0
			l0.013,0.02l0,0l0.014,0.021l0,0l0.013,0.02l0,0l0.013,0.02l0,0l0.013,0.02l0,0l0.013,0.02v0l0.012,0.019v0l0.013,0.02l0,0
			l0.013,0.02l0,0l0.013,0.02v0l0.012,0.019v0l0.012,0.02l0,0l0.012,0.02l0,0l0.012,0.02l0,0l0.011,0.02l0,0l0.012,0.02l0,0
			l0.011,0.02l0,0l0.012,0.02v0l0.011,0.02v0l0.011,0.02l0,0l0.011,0.021l0,0l0.011,0.02v0l0.01,0.02v0l0.011,0.021h0l0.01,0.021h0
			l0.011,0.021h0l0.01,0.021h0l0.01,0.021l0,0l0.01,0.021l0,0l0.011,0.021h0l0.009,0.021h0l0.01,0.021h0l0.01,0.022h0l0.01,0.022
			l0,0l0.009,0.022h0l0.01,0.022h0l0.058,0.138c0.034,0.091,0.062,0.18,0.085,0.271c0.1-5.853,0.181-11.566,0.28-17.424
			c0.041-2.381-0.073-5.063-1.635-6.854L36.445,5.135z"/>
		<linearGradient id="SVGID_2_" gradientUnits="userSpaceOnUse" x1="56.2905" y1="44.8149" x2="28.5226" y2="16.4097">
			<stop  offset="0" style="stop-color:#CFEDFC"/>
			<stop  offset="0.0106" style="stop-color:#C5E9FB"/>
			<stop  offset="0.0589" style="stop-color:#9ADBF9"/>
			<stop  offset="0.1034" style="stop-color:#79D2F7"/>
			<stop  offset="0.1425" style="stop-color:#62CDF6"/>
			<stop  offset="0.1718" style="stop-color:#58CBF5"/>
			<stop  offset="0.7485" style="stop-color:#00AEEF"/>
			<stop  offset="0.8077" style="stop-color:#00A8E6"/>
			<stop  offset="0.8795" style="stop-color:#009DD5"/>
			<stop  offset="0.9575" style="stop-color:#008DBE"/>
			<stop  offset="1" style="stop-color:#0083B0"/>
		</linearGradient>
		<path fill-rule="evenodd" clip-rule="evenodd" fill="url(#SVGID_2_)" d="M41.663,32.616c2.473,2.368,4.929,4.703,7.953,7.763
			c0.77,0.779,1.795,1.761,2.527,2.699c0.361,0.462,0.599,0.822,0.801,1.322c0.354,0.952,0.132,1.932-0.438,2.634
			c-0.782,0.963-2.165,1.525-3.12,1.882c-1.677,0.627-3.236,1.113-4.803,1.579c-0.289-0.269-0.698-0.652-0.986-0.921
			c0.057-0.026,0.335-0.115,0.751-0.249c1.633-0.523,5.396-1.731,6.323-2.516c2.067-1.749-0.108-3.343-1.546-4.745
			c-2.368-2.307-5.333-5.083-7.651-7.269c-2.105-1.985-4.093-3.756-5.685-6.295c-0.866-1.382-1.53-2.817-1.948-4.295
			c-1.817-6.416-0.265-13.209,0.619-16.929c0.558-0.292,1.123-0.531,1.68-0.823c-1.015,6.341-1.522,10.247-1.109,13.673
			C35.763,26.202,38.663,29.394,41.663,32.616z"/>
		<linearGradient id="SVGID_3_" gradientUnits="userSpaceOnUse" x1="41.4941" y1="23.0864" x2="25.0063" y2="7.199">
			<stop  offset="0" style="stop-color:#A5CE39"/>
			<stop  offset="0.1068" style="stop-color:#93C83E"/>
			<stop  offset="0.3215" style="stop-color:#5DBA47"/>
			<stop  offset="0.4574" style="stop-color:#11B14B"/>
			<stop  offset="0.5763" style="stop-color:#15A248"/>
			<stop  offset="0.7955" style="stop-color:#108641"/>
			<stop  offset="1" style="stop-color:#066A39"/>
		</linearGradient>
		<path fill-rule="evenodd" clip-rule="evenodd" fill="url(#SVGID_3_)" d="M36.147,6.451l0.001-0.007l0.004-0.019l0.004-0.019
			l0.024-0.1l-0.034,0.155V6.451L36.147,6.451z M36.147,29.544v-0.493c0.546,0.805,1.131,1.532,1.75,2.221
			C37.313,30.694,36.73,30.118,36.147,29.544z M36.114,6.617l0.022-0.14l0.001,0.001h0l0.002,0.002v0l0.004-0.018l0.003-0.011v0.011
			L36.114,6.617L36.114,6.617z M36.147,29.051c-0.122-0.179-0.242-0.363-0.359-0.55c-0.866-1.381-1.53-2.817-1.948-4.294
			c-1.818-6.417-0.265-13.21,0.619-16.929c0.552-0.289,1.109-0.526,1.662-0.813l-0.06-0.051L36.06,6.413l-0.044-0.039l-0.007-0.006
			h0l-0.007-0.007h0l-0.017-0.015L35.978,6.34l-0.002-0.002L35.97,6.333L35.966,6.33l-0.005-0.004l-0.004-0.004l-0.004-0.003
			l-0.006-0.005L35.945,6.31l-0.007-0.005l-0.002-0.002l-0.008-0.007l-0.001-0.001l-0.009-0.007l-0.001-0.001l-0.009-0.008l0,0
			L35.899,6.27l-0.01-0.008l-0.002-0.002L35.88,6.253L35.877,6.25l-0.006-0.005l-0.321-0.29l-0.397-0.361v0l-0.074-0.066l0,0
			l-0.076-0.068v0l-0.077-0.069l0,0l-0.079-0.071v0l-0.081-0.072l0,0l-0.083-0.074v0l-0.083-0.074l-0.086-0.076l-0.086-0.077h0
			c-1.422-1.265-3.344-2.896-4.219-3.209c-0.518-0.186-0.941-0.223-1.293-0.149v0c-0.027,0.006-0.054,0.012-0.08,0.019v0
			l-0.078,0.023l0,0c-0.025,0.008-0.051,0.017-0.075,0.026l0,0l-0.072,0.031v0l-0.07,0.034l0,0l-0.067,0.038v0
			c-0.022,0.013-0.044,0.026-0.066,0.041l0,0l-0.063,0.044l-0.062,0.047l-0.059,0.05c-0.02,0.017-0.039,0.035-0.058,0.053
			L28.11,2.051l-0.054,0.06l-0.052,0.062l-0.05,0.064l-0.048,0.067v0L27.86,2.373v0l-0.045,0.071l0,0l-0.043,0.073v0L27.73,2.594v0
			l-0.041,0.077v0l-0.039,0.08l0,0l-0.038,0.082v0l-0.037,0.083l0,0l-0.035,0.085l0,0l-0.034,0.086v0l-0.033,0.087v0l-0.031,0.089
			l0,0l-0.031,0.09v0l-0.03,0.091v0L27.354,3.54v0l-0.028,0.093v0l-0.028,0.094l0,0c-0.125,0.44-0.228,0.905-0.333,1.347l0,0
			l-0.022,0.095l0,0L26.92,5.263h0l-0.022,0.093l0,0l-0.023,0.091l0,0l-0.038,0.151h0L26.797,5.75l0,0l-0.038,0.153h0L26.72,6.057
			l0,0l-0.038,0.155h0l-0.039,0.155h0l-0.039,0.157h0l-0.039,0.157h0l-0.039,0.158h0l-0.039,0.159l0,0l-0.039,0.16l0,0l-0.04,0.161
			l0,0l-0.039,0.161h0l-0.04,0.162h0l-0.119,0.488v0l-0.04,0.164v0l-0.04,0.164v0l-0.04,0.165v0l-0.04,0.165l0,0l-0.04,0.165v0
			l-0.04,0.166v0l-0.04,0.166v0l-0.04,0.166l0,0l-0.04,0.167l0,0l-0.04,0.166v0l-0.04,0.167l0,0l-0.04,0.167v0l-0.04,0.166v0
			l-0.04,0.167l0,0l-0.04,0.167h0l-0.039,0.166v0l-0.04,0.166l0,0l-0.039,0.166h0l-0.04,0.167h0l-0.039,0.166h0l-0.039,0.166v0
			l-0.039,0.165v0l-0.04,0.165v0l-0.039,0.164v0l-0.039,0.164l0,0l-0.038,0.163v0l-0.039,0.164l0,0l-0.038,0.162v0l-0.039,0.162v0
			l-0.039,0.162l-0.038,0.161l-0.038,0.16l-0.038,0.16l-0.038,0.159l-0.038,0.159l-0.037,0.157l-0.037,0.157l-0.037,0.155
			l-0.037,0.155l-0.036,0.153l-0.037,0.153l-0.036,0.151l-0.036,0.151l-0.035,0.149l0,0l-0.035,0.148h0l-0.035,0.147l0,0
			l-0.035,0.146h0l-0.132,0.562l-0.007,0.033l-0.008,0.033l-0.006,0.028l-0.001,0.005l-0.008,0.033l-0.007,0.033l-0.014,0.059
			L24.218,16.5l-0.008,0.033l-0.007,0.033l-0.008,0.032l-0.037,0.155v0l-0.002,0.009l-0.059,0.25l-0.003,0.011l-0.007,0.032
			l-0.008,0.032l-0.008,0.032l-0.004,0.021l-0.003,0.013l-0.008,0.032l-0.008,0.032l-0.007,0.032l-0.005,0.02l-0.034,0.143
			l-0.008,0.032l-0.008,0.033l-0.007,0.032l-0.001,0.001l-0.023,0.096l-0.008,0.033l-0.016,0.064l-0.008,0.032l-0.008,0.032
			l-0.004,0.015l-0.004,0.018l0,0c4.034,3.747,8.122,7.69,12.239,11.743V29.051z"/>
		<linearGradient id="SVGID_4_" gradientUnits="userSpaceOnUse" x1="24.0947" y1="0.354" x2="16.141" y2="33.9314">
			<stop  offset="0" style="stop-color:#FFCB05"/>
			<stop  offset="0.2025" style="stop-color:#FBF28C"/>
			<stop  offset="0.5644" style="stop-color:#FFE9AF"/>
			<stop  offset="1" style="stop-color:#FFCB05"/>
		</linearGradient>
		<path fill-rule="evenodd" clip-rule="evenodd" fill="url(#SVGID_4_)" d="M22.42,16.633c0.815-3.326,1.609-6.62,2.747-10.769
			c0.29-1.056,0.627-2.436,1.074-3.538c0.22-0.544,0.413-0.93,0.745-1.355c0.647-0.783,1.607-1.08,2.501-0.937
			c1.225,0.196,2.403,1.112,3.189,1.76c1.381,1.14,2.582,2.247,3.769,3.37c-0.089,0.385-0.215,0.931-0.305,1.314
			c-0.051-0.036-0.267-0.232-0.591-0.526c-1.27-1.153-4.197-3.807-5.34-4.218c-2.548-0.916-2.842,1.765-3.336,3.712
			c-0.813,3.204-1.736,7.16-2.47,10.26c-0.667,2.816-1.206,5.423-2.609,8.07c-0.763,1.441-1.675,2.733-2.746,3.835
			c-4.648,4.781-11.307,6.834-14.97,7.929c-0.531-0.337-1.031-0.733-1.563-1.07c6-2.292,9.646-3.778,12.407-5.85
			C19.815,24.95,21.13,20.843,22.42,16.633z"/>
		<linearGradient id="SVGID_5_" gradientUnits="userSpaceOnUse" x1="21.022" y1="29.6323" x2="9.2388" y2="9.0207">
			<stop  offset="0" style="stop-color:#FFFFFF"/>
			<stop  offset="0.3144" style="stop-color:#FEF6A9"/>
			<stop  offset="0.4953" style="stop-color:#FDEE11"/>
			<stop  offset="1" style="stop-color:#F89520"/>
		</linearGradient>
		<path fill-rule="evenodd" clip-rule="evenodd" fill="url(#SVGID_5_)" d="M1.231,34.863l1.297-0.397l1.085-0.415l0.011-0.005
			c0.799-0.307,1.554-0.6,2.268-0.882L5.9,33.16l0.229-0.091l0.009-0.004c0.627-0.25,1.222-0.491,1.789-0.728l0.006-0.003
			l0.206-0.086l0.006-0.003l0.204-0.086c1.666-0.707,3.078-1.374,4.314-2.074L12.815,30l0.001-0.001l0.15-0.087l0.001-0.001
			l0.148-0.087l0.001-0.001l0.147-0.088l0.001,0l0.145-0.088l0.001-0.001l0.144-0.089l0.001,0l0.142-0.09h0l0.142-0.091h0
			l0.14-0.091v0l0.138-0.092v0l0.137-0.092l0,0l0.135-0.094l0,0l0.133-0.094l0.001,0l0.132-0.095h0.001l0.13-0.096h0.001l0.13-0.097
			l0,0l0.226-0.172l0.001,0l0.221-0.172l0,0l0.216-0.173l0,0l0.211-0.174l0,0l0.206-0.174l0,0l0.202-0.175v0l0.197-0.176l0,0
			l0.192-0.176l0,0l0.188-0.177l0,0l0.183-0.178l0,0l0.178-0.178l0,0l0.174-0.179v0l0.17-0.179v0l0.166-0.18l0,0l0.162-0.18h0
			l0.158-0.182h0c1.662-1.935,2.653-3.957,3.416-6.025v0l0.071-0.193v0l0.069-0.193v-0.001l0.068-0.194v0l0.067-0.194v0l0.066-0.194
			v0l0.065-0.195v-0.001l0.064-0.195v0l0.064-0.195v0l0.062-0.195v0l0.063-0.195v-0.001l0.062-0.196v0l0.062-0.196v0l0.061-0.196v0
			l0.061-0.197v0l0.061-0.197v0l0.061-0.197v0l0.038-0.155v0l0.038-0.155v0l0.039-0.155v0l0.038-0.156v0l0.114-0.467h0l0.038-0.157
			h0l0.038-0.156h0l0.038-0.156h0l0.038-0.157l0,0l0.038-0.157h0l0.038-0.157h0l0.039-0.157h0l0.038-0.157h0l0.039-0.158h0
			l0.038-0.158l0,0l0.039-0.158l0,0l0.039-0.159l0,0l0.039-0.159h0l0.039-0.159h0l0.039-0.16h0l0.04-0.16l0,0l0.04-0.161h0
			l0.04-0.161l0,0l0.04-0.162l0,0l0.04-0.162h0l0.04-0.163h0l0.041-0.163h0l0.041-0.164l0,0l0.042-0.164l0,0l0.042-0.165l0,0
			l0.042-0.165l0,0l0.042-0.166h0l0.042-0.166l0,0l0.042-0.167h0l0.042-0.167h0l0.042-0.169l0,0l0.043-0.169l0,0l0.044-0.17l0,0
			l0.043-0.17h0L24.1,9.877h0l0.043-0.172h0l0.045-0.173l0,0l0.045-0.173h0l0.045-0.175h0l0.045-0.175h0l0.046-0.177h0l0.046-0.177
			l0,0l0.047-0.178l0,0l0.047-0.179l0,0l0.048-0.181v0l0.048-0.181v0l0.049-0.182l0,0l0.049-0.183l0,0l0.05-0.185l0,0
			c0.132-0.494,0.27-0.999,0.412-1.518l0.054-0.201v0l0.014-0.05v0l0.014-0.052l0,0l0.014-0.052v0l0.015-0.053l0,0l0.014-0.053h0
			l0.014-0.053h0l0.014-0.053l0,0l0.014-0.054l0,0l0.014-0.054h0l0.015-0.055l0,0l0.014-0.055l0,0l0.015-0.055l0,0l0.014-0.055v0
			l0.015-0.055l0,0l0.014-0.055l0,0l0.015-0.056v0l0.015-0.056v0l0.015-0.057h0L25.5,4.629l0,0l0.016-0.057v0l0.015-0.057l0,0
			l0.016-0.057h0l0.016-0.057l0,0l0.016-0.058l0,0l0.016-0.057l0,0l0.016-0.058l0,0l0.016-0.057l0,0l0.017-0.058l0,0l0.016-0.057
			l0,0l0.017-0.058h0l0.017-0.058l0,0l0.017-0.058l0,0c0.159-0.539,0.333-1.074,0.528-1.557c0.221-0.544,0.413-0.93,0.746-1.355
			c0.031-0.037,0.061-0.071,0.093-0.106l0,0l0.013-0.014l0.004-0.004L27.1,0.842l0.004-0.004l0.004-0.004l0.002-0.002l0.002-0.002
			l0.004-0.005l0.008-0.008l0.004-0.004l0.004-0.004l0.004-0.004l0.004-0.004v0l0.004-0.003l0.004-0.005l0.004-0.004L27.16,0.78
			l0.004-0.004l0.004-0.004l0.004-0.004l0.003-0.003l0.001-0.001l0.004-0.004l0.005-0.005L27.19,0.75l0.004-0.004l0.004-0.004
			l0.004-0.004l0.022-0.02h0l0.004-0.004l0.009-0.009l0.004-0.003v0l0.014-0.013C22.111,3.543,17.097,6.344,11.948,9.2
			c-2.083,1.156-4.401,2.582-5.17,4.831L1.231,34.863z"/>
		<linearGradient id="SVGID_6_" gradientUnits="userSpaceOnUse" x1="9.7212" y1="43.166" x2="13.4091" y2="25.1615">
			<stop  offset="0.0613" style="stop-color:#C84327"/>
			<stop  offset="0.255" style="stop-color:#D25B27"/>
			<stop  offset="0.5846" style="stop-color:#E47C24"/>
			<stop  offset="0.8443" style="stop-color:#F19122"/>
			<stop  offset="1" style="stop-color:#F89920"/>
		</linearGradient>
		<path fill-rule="evenodd" clip-rule="evenodd" fill="url(#SVGID_6_)" d="M23.909,17.802l-0.653,2.641l-2.15,8.039l-2.63,10.91v0
			l-0.032,0.009l-0.016,0.004L18.41,39.41l-0.032,0.009l-0.032,0.009l-0.033,0.009l-0.012,0.004l-0.02,0.005l-0.051,0.016
			l-0.014,0.004l-0.032,0.009l-0.01,0.003l-0.022,0.006l-0.032,0.009L18.105,39.5l-0.051,0.015l-0.007,0.002l-0.123,0.037
			l-0.004,0.001l-0.028,0.009l-0.032,0.009l-0.008,0.003l-0.057,0.017h-0.001l-0.127,0.039l-0.001,0l-0.126,0.038l-0.004,0.001
			l-0.123,0.037l-0.007,0.002l-0.002,0l-0.118,0.035l-0.011,0.003l-0.033,0.01l-0.032,0.01l-0.052,0.016l-0.014,0.004l-0.033,0.01
			l-0.032,0.01l-0.462,0.139l-0.033,0.01l-0.1,0.03l-0.033,0.01l-0.068,0.02l-1.949,0.585l0,0l-0.157,0.047l-0.157,0.047
			l-0.158,0.048l-0.158,0.047l-0.159,0.047l-0.16,0.048l-0.16,0.048l-0.16,0.048l-0.162,0.049l-0.162,0.048l-0.162,0.049
			l-0.162,0.048l-0.163,0.048l-0.163,0.049l-0.164,0.049l-0.163,0.048l-0.164,0.049l-0.164,0.049l-0.165,0.049l-0.164,0.048
			l-0.164,0.049l-0.165,0.048l-0.164,0.049l-0.164,0.049l-0.164,0.048l-0.164,0.048l-0.164,0.049l-0.164,0.048L9.73,42.005
			l-0.163,0.048l-0.164,0.048l-0.162,0.048L9.08,42.197l-0.162,0.047l-0.162,0.048l-0.161,0.046l-0.161,0.046l-0.16,0.046
			l-0.16,0.047l-0.158,0.045l-0.158,0.046l-0.157,0.045l-0.157,0.046l-0.156,0.044L7.174,42.75L7.02,42.793l-0.154,0.044
			l-0.152,0.043l-0.152,0.043l-0.151,0.042l-0.15,0.043l-0.09,0.025l-0.092,0.026l-0.092,0.027l-0.093,0.028l0,0L5.8,43.145l0,0
			l-0.094,0.028h0l-0.094,0.029l0,0L5.517,43.23l0,0l-0.095,0.028h0l-0.095,0.029h0L5.23,43.316l0,0l-0.096,0.028v0l-0.096,0.027
			l0,0l-0.096,0.027l0,0l-0.096,0.026v0l-0.096,0.026v0l-0.095,0.024v0L4.56,43.501v0l-0.095,0.023l0,0L4.37,43.547l0,0
			l-0.094,0.021l0,0l-0.094,0.02v0l-0.093,0.019l0,0l-0.094,0.017v0L3.902,43.64l0,0L3.81,43.653v0l-0.091,0.012l0,0l-0.091,0.01v0
			l-0.089,0.007v0L3.451,43.69l0,0l-0.088,0.004v0l-0.087,0.002L3.19,43.695l-0.084-0.003l-0.083-0.005L2.94,43.679L2.86,43.667
			l-0.079-0.013l-0.078-0.017l-0.077-0.02l-0.075-0.023l-0.073-0.026l0,0l-0.071-0.03h0c-0.023-0.01-0.047-0.021-0.07-0.032l0,0
			l-0.068-0.037l0,0l-0.066-0.04h0l-0.064-0.044l0,0l-0.063-0.047h0l-0.06-0.052l0,0L1.954,43.23l0,0
			c-0.019-0.019-0.038-0.039-0.057-0.06l0,0c-0.019-0.02-0.037-0.042-0.055-0.063h0c-0.018-0.022-0.035-0.045-0.051-0.069h0
			l-0.05-0.072h0l-0.047-0.077h0l-0.045-0.082l0,0c-0.015-0.028-0.028-0.057-0.042-0.086l0,0c-0.097-0.208-0.174-0.454-0.226-0.745
			c-0.026-0.149-0.037-0.34-0.034-0.564l0.001-0.085h0l0.002-0.088l0,0l0.004-0.091l0,0l0.005-0.093l0,0l0.006-0.096h0l0.007-0.098
			l0,0l0.008-0.101l0,0l0.009-0.103l0,0l0.011-0.106l0,0l0.011-0.107l0,0l0.012-0.109l0,0l0.013-0.11v0l0.014-0.113l0,0l0.015-0.114
			l0,0l0.016-0.116h0L1.5,39.762h0l0.017-0.118l0,0l0.017-0.119l0,0l0.019-0.12v0l0.019-0.121l0,0l0.02-0.122v0l0.02-0.123h0
			l0.021-0.124l0,0l0.021-0.124h0l0.021-0.125l0,0l0.021-0.124v0l0.022-0.125v0l0.022-0.124l0,0l0.023-0.125v0l0.023-0.124v0
			l0.023-0.124l0,0l0.023-0.124l0,0l0.023-0.124l0,0l0.024-0.122v0l0.024-0.122v0c0.063-0.323,0.127-0.637,0.188-0.933h0l0.023-0.11
			l0,0l0.022-0.108h0l0.022-0.106l0,0l0.022-0.104h0l0.021-0.102l0,0l0.021-0.1l0,0l0.021-0.097h0l0.02-0.095h0l0.019-0.092h0
			l0.019-0.089h0l0.018-0.086h0l0.018-0.083h0l0.017-0.079h0l0.004-0.02v0l0.034-0.152l0.002-0.012l0.004-0.017l0.001-0.007
			l0.002-0.01l0.001-0.008l0.002-0.009L2.415,35l0.002-0.008l0.001-0.008l0.002-0.008l0.029-0.135l0-0.001l0.012-0.055v0L2.5,34.598
			L2.5,34.594l0-0.005l0.003-0.018l0.001-0.001l0.001-0.007l0.008-0.044l0.001-0.006v0l0.002-0.011l0,0l0.003-0.02l0.001-0.003
			v-0.001v-0.002c0.53,0.336,1.028,0.73,1.557,1.066c3.663-1.094,10.33-3.141,14.97-7.929c1.594-1.644,2.81-3.695,3.695-5.929
			C23.206,20.518,23.539,19.24,23.909,17.802z"/>
		<linearGradient id="SVGID_7_" gradientUnits="userSpaceOnUse" x1="50.3066" y1="56.583" x2="-17.3465" y2="27.6109">
			<stop  offset="0" style="stop-color:#4C0D24"/>
			<stop  offset="0.35" style="stop-color:#ED1C24"/>
			<stop  offset="0.79" style="stop-color:#FEE7DC"/>
			<stop  offset="1" style="stop-color:#FDD5C4"/>
		</linearGradient>
		<path fill-rule="evenodd" clip-rule="evenodd" fill="url(#SVGID_7_)" d="M18.176,41.272c-3.288,0.957-6.538,1.917-10.7,3.006
			c-1.06,0.277-2.423,0.674-3.601,0.839c-0.581,0.082-1.012,0.107-1.546,0.032c-1.001-0.169-1.739-0.852-2.062-1.697
			c-0.443-1.159-0.239-2.637-0.07-3.643c0.296-1.766,0.654-3.359,1.034-4.949c0.377-0.115,0.914-0.279,1.291-0.394
			c-0.006,0.062-0.067,0.348-0.16,0.775c-0.363,1.676-1.198,5.538-0.982,6.733c0.481,2.664,2.949,1.578,4.882,1.033
			c3.182-0.897,7.069-2.077,10.12-2.992c2.773-0.831,5.3-1.667,8.294-1.775c1.63-0.059,3.205,0.084,4.694,0.46
			c6.465,1.634,11.573,6.375,14.352,9c-0.026,0.628-0.095,1.246-0.121,1.875c-4.984-4.05-8.119-6.451-11.293-7.806
			C26.68,39.371,22.467,40.286,18.176,41.272z"/>
		<linearGradient id="SVGID_8_" gradientUnits="userSpaceOnUse" x1="10.2134" y1="64.1143" x2="44.7886" y2="21.035">
			<stop  offset="0" style="stop-color:#4C0D24"/>
			<stop  offset="0.35" style="stop-color:#ED1C24"/>
			<stop  offset="0.79" style="stop-color:#FEE7DC"/>
			<stop  offset="1" style="stop-color:#FDD5C4"/>
		</linearGradient>
		<path fill-rule="evenodd" clip-rule="evenodd" fill="url(#SVGID_8_)" d="M44.582,50.495L43.6,49.579l-0.231-0.188l-0.23-0.187
			l-0.227-0.184l-0.225-0.182l-0.222-0.179l-0.22-0.177l-0.217-0.175l-0.215-0.172l-0.212-0.17l-0.21-0.167l-0.208-0.165
			l-0.206-0.163l-0.203-0.16l-0.201-0.159l-0.199-0.156l-0.197-0.154l-0.195-0.152l-0.193-0.149l-0.19-0.147l-0.189-0.146
			l-0.187-0.143l-0.186-0.141l-0.184-0.139l-0.182-0.138l-0.18-0.134l-0.179-0.133l-0.177-0.13l-0.176-0.129l-0.174-0.126l0,0
			l-0.173-0.125v0l-0.171-0.122l0,0l-0.17-0.121l0,0l-0.168-0.118l0,0l-0.167-0.117l0,0l-0.166-0.114l0,0l-0.165-0.113v0
			l-0.164-0.11l0,0l-0.162-0.109v0l-0.162-0.106v0l-0.161-0.105v0l-0.159-0.103l0,0l-0.159-0.102l0,0l-0.157-0.1l0,0l-0.157-0.098v0
			l-0.156-0.095l0,0l-0.155-0.094l0,0l-0.154-0.093l0,0l-0.154-0.091v0l-0.153-0.088v0l-0.152-0.087l0,0l-0.152-0.085l0,0
			l-0.152-0.084v0l-0.15-0.081v0L33.8,42.487l0,0l-0.15-0.078v0l-0.15-0.077v0l-0.149-0.074v0l-0.15-0.074l0,0l-0.148-0.072l0,0
			l-0.149-0.07v0l-0.149-0.069l0,0l-0.149-0.067v0l-0.149-0.065v0l-0.149-0.064v0l-0.262-0.109v0l-0.261-0.105v0l-0.258-0.1v0
			l-0.257-0.096v0l-0.254-0.091l0,0l-0.253-0.087v0L30.51,41.1v0l-0.25-0.078l0,0l-0.247-0.074l0,0l-0.246-0.07v0l-0.244-0.065v0
			l-0.243-0.062l0,0l-0.24-0.057v0l-0.239-0.054v0l-0.237-0.049v0l-0.236-0.046v0l-0.234-0.042v0l-0.232-0.039v0l-0.231-0.035v0
			l-0.23-0.032v0c-0.076-0.01-0.152-0.019-0.228-0.028v0l-0.227-0.025v0l-0.226-0.022l0,0l-0.225-0.019v0l-0.223-0.015v0
			l-0.223-0.013l0,0l-0.221-0.01l0,0l-0.22-0.007v0l-0.218-0.004l0,0l-0.218-0.002l-0.217,0.001l-0.216,0.003l-0.214,0.006
			l-0.214,0.009l-0.212,0.011l-0.212,0.013l-0.211,0.016l-0.21,0.017l-0.209,0.02l-0.208,0.021l-0.208,0.024l-0.208,0.024
			l-0.207,0.027l-0.206,0.028l-0.205,0.03l-0.205,0.032l-0.205,0.033l-0.204,0.034L21.2,40.633l-0.204,0.037l-0.202,0.039
			l-0.203,0.039l-0.202,0.041l-0.202,0.041l-0.202,0.042l-0.202,0.042l-0.201,0.044L19.382,41l-0.201,0.044L18.98,41.09
			l-0.201,0.046l-0.201,0.045l-0.201,0.046l-0.201,0.046l-0.154,0.045l-0.154,0.045l-0.154,0.045l-0.154,0.045l-0.154,0.045
			l-0.154,0.045l-0.154,0.045l-0.154,0.044l-0.154,0.045l-0.155,0.045l-0.155,0.045l-0.155,0.045l-0.155,0.045l-0.156,0.045
			l-0.156,0.045l-0.156,0.045l-0.156,0.046l-0.157,0.045l-0.157,0.045l-0.157,0.045l-0.157,0.046l-0.158,0.046l-0.158,0.046
			l-0.159,0.045l-0.159,0.046l-0.16,0.046l-0.16,0.046l-0.161,0.046l-0.161,0.047l-0.162,0.046l-0.162,0.046l-0.164,0.046
			l-0.164,0.046l-0.164,0.047l-0.165,0.047l-0.166,0.047l-0.167,0.047l-0.167,0.046l-0.168,0.047l-0.169,0.047l-0.169,0.048
			l-0.171,0.047l-0.171,0.048l-0.172,0.047l-0.173,0.048v0l-0.174,0.047v0l-0.175,0.048l0,0l-0.176,0.047v0l-0.177,0.049l0,0
			l-0.178,0.048v0l-0.179,0.049l0,0l-0.18,0.048l0,0l-0.181,0.049l0,0l-0.183,0.049v0l-0.183,0.049v0l-0.185,0.049v0l-0.186,0.05v0
			l-0.187,0.049l0,0l-0.188,0.05v0l-0.19,0.049v0l-0.19,0.05v0l-0.192,0.05l0,0l-0.193,0.051v0l-0.195,0.05v0l-0.049,0.013v0
			l-0.05,0.013l0,0l-0.051,0.013v0l-0.051,0.013l0,0l-0.051,0.014l0,0L7.171,44.36l0,0l-0.052,0.014l-0.053,0.013l-0.053,0.015
			L6.96,44.417l-0.054,0.014l-0.054,0.014L6.798,44.46l-0.055,0.015l-0.055,0.014l-0.056,0.015l-0.056,0.015l-0.055,0.015
			l-0.056,0.015L6.41,44.563h0l-0.056,0.015h0l-0.056,0.015h0L6.24,44.608l0,0l-0.057,0.015h0l-0.057,0.015l0,0l-0.058,0.015l0,0
			L6.01,44.667l0,0l-0.058,0.015h0l-0.057,0.015h0l-0.058,0.014l0,0l-0.058,0.015h0L5.721,44.74h0l-0.058,0.015h0L5.604,44.77h0
			l-0.058,0.014h0l-0.059,0.014l0,0L5.43,44.812h0l-0.058,0.014h0l-0.058,0.014h0l-0.058,0.014h0l-0.058,0.014h0L5.137,44.88h0
			l-0.058,0.013h0L5.02,44.906l0,0l-0.058,0.013h0l-0.058,0.013h0l-0.058,0.012l0,0l-0.059,0.012h0l-0.057,0.012h0L4.67,44.98l0,0
			l-0.058,0.012h0l-0.058,0.011l0,0l-0.057,0.011l0,0L4.44,45.025h0l-0.057,0.01h0l-0.057,0.01l-0.057,0.01l-0.057,0.01
			l-0.056,0.009l-0.057,0.009l-0.056,0.009l-0.056,0.009l-0.055,0.008l-0.056,0.008l-0.026,0.004l-0.027,0.003l-0.027,0.004
			l-0.027,0.003l-0.025,0.004l-0.026,0.003L3.69,45.143l-0.026,0.002l-0.025,0.003l-0.026,0.003l-0.025,0.003l-0.025,0.003
			L3.539,45.16l-0.025,0.002l-0.025,0.002l-0.025,0.002L3.44,45.17l-0.024,0.002l-0.023,0.002l-0.025,0.002l-0.024,0.002
			L3.319,45.18l-0.023,0.002l-0.024,0.001l-0.023,0.001l-0.024,0.001l-0.023,0.001l-0.024,0.001L3.155,45.19l-0.023,0.001l-0.023,0
			l-0.024,0.001l-0.023,0l-0.023,0l-0.023,0.001H2.993H2.969H2.946H2.923H2.9H2.877l-0.023-0.001l-0.023,0l-0.023,0l-0.022-0.001
			L2.761,45.19l-0.023-0.001l-0.023-0.001l-0.023-0.001l-0.023-0.001l-0.023-0.002l-0.024-0.001L2.597,45.18l-0.024-0.002
			l-0.024-0.002l-0.024-0.002l-0.024-0.002l-0.024-0.002l-0.024-0.003l-0.025-0.003L2.404,45.16l-0.024-0.004l-0.025-0.003
			l-0.025-0.004l-0.031-0.005l-0.005-0.001l-0.004-0.001l-0.004-0.001H2.283l-0.003,0L2.275,45.14l-0.004-0.001l-0.005-0.001
			l-0.004,0l-0.005-0.001l-0.004,0l-0.004-0.001l-0.004-0.001l-0.005-0.001l-0.002,0l-0.002,0l-0.004,0l-0.009-0.002l0,0
			l-0.004-0.001l-0.004,0l-0.004-0.001l-0.005-0.001l-0.004-0.001l-0.004-0.001l-0.003-0.001H2.189l-0.002,0l-0.002-0.001
			L2.18,45.12l-0.004-0.001l-0.004,0l-0.001,0l-0.008-0.002l-0.004-0.001l-0.004-0.001h0l-0.013-0.003L2.137,45.11l-0.09-0.023
			c5.02,3.013,9.929,5.941,14.953,8.957c2.043,1.226,4.417,2.449,6.749,1.992L44.582,50.495L44.582,50.495z M43.6,49.579"/>
		<linearGradient id="SVGID_9_" gradientUnits="userSpaceOnUse" x1="25.4009" y1="44.7734" x2="48.468" y2="40.0805">
			<stop  offset="0" style="stop-color:#D02E89"/>
			<stop  offset="0.5521" style="stop-color:#A64686"/>
			<stop  offset="1" style="stop-color:#63335D"/>
		</linearGradient>
		<path fill-rule="evenodd" clip-rule="evenodd" fill="url(#SVGID_9_)" d="M43.721,47.704l-0.355-0.335
			c-2.847-2.676-7.798-7.098-13.996-8.665c-1.489-0.376-3.064-0.52-4.694-0.46c-1.502,0.055-2.887,0.292-4.244,0.621l19.469-5.55
			c0.361,0.346,0.729,0.69,1.101,1.04l0.025,0.023l0.298,0.28l0.025,0.024l0.025,0.023l0.001,0.001l0.024,0.022l0.049,0.046
			l0.025,0.023l0,0l0.109,0.103v0l0.11,0.103v0l0.111,0.104v0l0.112,0.105l0,0l0.113,0.106v0l0.113,0.106l0,0l0.115,0.107v0
			l0.114,0.108l0,0l0.116,0.109l0,0l0.116,0.109l0,0l0.117,0.11l0,0l0.117,0.11l0,0l0.119,0.111v0l0.118,0.111v0l0.12,0.112l0,0
			l0.12,0.112v0l0.121,0.114l0,0l0.121,0.114v0l0.121,0.114l0,0l0.122,0.114v0l0.122,0.115l0,0l0.122,0.115l0,0l0.123,0.116
			l0.124,0.116l0.123,0.117l0.124,0.117l0.124,0.117l0.124,0.116l0.125,0.118l0.124,0.117l0.124,0.117l0.125,0.117l0.124,0.118
			l0.125,0.118l0.124,0.118l0.125,0.117l0.124,0.118l0.125,0.118l0.124,0.118l0.125,0.117l0.123,0.118l0,0l0.124,0.117v0
			l0.123,0.117l0,0l0.124,0.117v0l0.122,0.117v0l0.123,0.116l0,0l0.122,0.116v0l0.123,0.115v0l0.121,0.116v0l0.121,0.115l0,0
			l0.12,0.115l0,0l0.12,0.115l0,0l0.119,0.115l0,0l0.119,0.114v0l0.118,0.113l0,0l0.118,0.112v0l0.117,0.113l0,0l0.116,0.112v0
			l0.115,0.111l0,0l0.115,0.11v0l0.114,0.11v0l0.113,0.109v0l0.112,0.108v0l0.112,0.108l0,0l0.067,0.066l0,0l0.069,0.066v0
			l0.069,0.066l0,0c0.21,0.2,0.432,0.403,0.647,0.61v0l0.072,0.069v0l0.072,0.069v0l0.071,0.069l0,0l0.071,0.07l0,0l0.069,0.07v0
			l0.069,0.07l0,0l0.068,0.071l0,0l0.067,0.07v0l0.065,0.071v0l0.064,0.071v0l0.063,0.072l0,0l0.062,0.071v0l0.06,0.072v0
			l0.058,0.072v0l0.056,0.073v0l0.054,0.072v0l0.052,0.073v0l0.05,0.073v0l0.047,0.074v0l0.045,0.073v0l0.042,0.074v0l0.04,0.074
			l0,0l0.037,0.075v0l0.034,0.075l0,0l0.031,0.076l0,0l0.028,0.075v0l0.025,0.076v0l0.021,0.075v0l0.017,0.076v0l0.015,0.076v0
			l0.01,0.077v0c0.003,0.025,0.005,0.051,0.007,0.076v0l0.002,0.078l0,0l-0.001,0.077l0,0l-0.006,0.078l0,0l-0.009,0.078l0,0
			l-0.015,0.079v0l-0.019,0.078v0l-0.023,0.079v0l-0.028,0.078v0l-0.033,0.079v0l-0.038,0.079v0l-0.043,0.08v0
			c-0.016,0.026-0.031,0.053-0.048,0.079v0l-0.054,0.081l0,0l-0.059,0.08l0,0c-0.021,0.027-0.042,0.054-0.065,0.081v0l-0.069,0.081
			l-0.076,0.082h0l-0.081,0.081l0,0l-0.088,0.082l0,0l-0.093,0.082l0,0l-0.046,0.037l0,0l-0.049,0.038h0l-0.053,0.038h0
			l-0.057,0.039h0l-0.061,0.04l0,0l-0.064,0.04h0l-0.068,0.041l0,0l-0.071,0.04l-0.075,0.042l-0.078,0.042l0,0l-0.081,0.042v0
			l-0.084,0.042v0l-0.086,0.042l0,0l-0.089,0.042l0,0l-0.091,0.043v0l-0.094,0.042v0l-0.097,0.044v0l-0.099,0.043v0l-0.101,0.044
			l0,0l-0.103,0.043v0l-0.105,0.044l0,0l-0.106,0.044v0l-0.108,0.044l0,0l-0.109,0.044l-0.111,0.045l-0.113,0.044l-0.113,0.044
			l-0.115,0.044l-0.116,0.044l-0.116,0.044l0,0l-0.118,0.044l0,0l-0.118,0.043l0,0l-0.119,0.043v0l-0.119,0.043v0l-0.119,0.043v0
			l-0.119,0.042v0l-0.12,0.042v0l-0.119,0.042v0l-0.119,0.042l0,0l-0.119,0.042l0,0l-0.119,0.041v0l-0.118,0.04v0l-0.117,0.04l0,0
			l-0.116,0.04v0l-0.116,0.039l0,0c-0.73,0.247-1.402,0.462-1.887,0.617c-0.417,0.134-0.694,0.223-0.751,0.249l0.004,0.004
			l-0.009,0.004L43.721,47.704z"/>
	</g>
</g>
<g id="shadow">
	<g opacity="0.15">
		<path fill-rule="evenodd" clip-rule="evenodd" fill="#F6F6F6" d="M26.658,58.951c10.176,0,18.476-0.578,18.476-1.286
			s-8.3-1.286-18.476-1.286S8.182,56.956,8.182,57.665S16.482,58.951,26.658,58.951z"/>
		<path fill-rule="evenodd" clip-rule="evenodd" fill="#E6E7E8" d="M26.658,58.829c9.214,0,16.729-0.523,16.729-1.165
			c0-0.641-7.515-1.165-16.729-1.165c-9.214,0-16.729,0.523-16.729,1.165C9.929,58.306,17.444,58.829,26.658,58.829z"/>
		<path fill-rule="evenodd" clip-rule="evenodd" fill="#D1D3D4" d="M26.658,58.719c8.343,0,15.147-0.474,15.147-1.054
			c0-0.581-6.804-1.055-15.147-1.055s-15.147,0.474-15.147,1.055C11.511,58.246,18.315,58.719,26.658,58.719z"/>
		<path fill-rule="evenodd" clip-rule="evenodd" fill="#BCBEC0" d="M26.658,58.62c7.554,0,13.715-0.429,13.715-0.955
			s-6.161-0.955-13.715-0.955s-13.715,0.429-13.715,0.955S19.104,58.62,26.658,58.62z"/>
		<path fill-rule="evenodd" clip-rule="evenodd" fill="#A7A9AC" d="M26.658,58.529c6.839,0,12.418-0.388,12.418-0.864
			c0-0.476-5.579-0.864-12.418-0.864S14.24,57.188,14.24,57.665C14.24,58.141,19.819,58.529,26.658,58.529z"/>
		<path fill-rule="evenodd" clip-rule="evenodd" fill="#939598" d="M26.658,58.448c6.193,0,11.244-0.352,11.244-0.783
			s-5.051-0.783-11.244-0.783s-11.244,0.352-11.244,0.783S20.465,58.448,26.658,58.448z"/>
		<path fill-rule="evenodd" clip-rule="evenodd" fill="#808285" d="M26.658,58.374c5.607,0,10.181-0.318,10.181-0.708
			c0-0.391-4.573-0.709-10.181-0.709c-5.607,0-10.181,0.318-10.181,0.709C16.478,58.055,21.051,58.374,26.658,58.374z"/>
		<path fill-rule="evenodd" clip-rule="evenodd" fill="#6D6E71" d="M26.658,58.307c5.077,0,9.218-0.288,9.218-0.642
			s-4.141-0.642-9.218-0.642s-9.218,0.288-9.218,0.642S21.581,58.307,26.658,58.307z"/>
		<path fill-rule="evenodd" clip-rule="evenodd" fill="#58595B" d="M26.658,58.246c4.597,0,8.346-0.261,8.346-0.581
			c0-0.32-3.749-0.581-8.346-0.581c-4.597,0-8.346,0.261-8.346,0.581C18.312,57.985,22.062,58.246,26.658,58.246z"/>
		<path fill-rule="evenodd" clip-rule="evenodd" fill="#414042" d="M26.658,58.191c4.163,0,7.557-0.236,7.557-0.526
			c0-0.29-3.395-0.526-7.557-0.526c-4.162,0-7.557,0.236-7.557,0.526C19.101,57.955,22.496,58.191,26.658,58.191z"/>
		<path fill-rule="evenodd" clip-rule="evenodd" d="M26.658,58.141c3.769,0,6.842-0.214,6.842-0.476s-3.074-0.477-6.842-0.477
			s-6.842,0.214-6.842,0.477S22.89,58.141,26.658,58.141z"/>
	</g>
</g>
<g id="glass">
</g>
</svg>
